<svg width="25" height="24" viewBox="0 0 25 24" fill="none" xmlns="http://www.w3.org/2000/svg">
<path d="M21.697 12C21.697 10.1195 21.1079 8.28625 20.0126 6.7577C18.9172 5.22915 17.3706 4.08209 15.5899 3.47763C13.8092 2.87316 11.8839 2.84166 10.0844 3.38754C8.28488 3.93341 6.70155 5.02925 5.55678 6.52115C4.41201 8.01304 3.76331 9.82604 3.70178 11.7055C3.64025 13.585 4.16899 15.4366 5.21373 17.0001C6.25848 18.5637 7.76675 19.7608 9.52671 20.4232C11.2867 21.0856 13.2099 21.18 15.0263 20.6933" stroke="#EFC048" stroke-width="2" stroke-linecap="round"/>
<circle cx="12.697" cy="12" r="4" stroke="#EFC048" stroke-width="2"/>
<path d="M16.697 9V13.5C16.697 14.8807 17.8162 16 19.197 16V16C20.5777 16 21.697 14.8807 21.697 13.5V12" stroke="#EFC048" stroke-width="2" stroke-linecap="round"/>
</svg>
