<svg width="25" height="24" viewBox="0 0 25 24" fill="none" xmlns="http://www.w3.org/2000/svg">
<path d="M18.4041 13.7071L21.0522 16.3552C21.4083 16.7113 21.4083 17.2887 21.0522 17.6448C19.127 19.57 16.0791 19.7866 13.9009 18.153L12.3255 16.9714C10.582 15.6638 9.03318 14.115 7.72553 12.3714L6.54397 10.796C4.91037 8.61788 5.12697 5.56999 7.05219 3.64477C7.40829 3.28867 7.98563 3.28867 8.34173 3.64477L10.9899 6.29289C11.3804 6.68342 11.3804 7.31658 10.9899 7.70711L9.96871 8.72825C9.80642 8.89054 9.76619 9.13846 9.86883 9.34373C11.0555 11.7171 12.9799 13.6415 15.3532 14.8281C15.5585 14.9308 15.8064 14.8905 15.9687 14.7283L16.9899 13.7071C17.3804 13.3166 18.0135 13.3166 18.4041 13.7071Z" stroke="#EFC048" stroke-width="2"/>
</svg>
